<?xml version="1.0" encoding="UTF-8"?>
<!-- Generator: visioncortex VTracer 0.6.3 -->
<svg version="1.1" xmlns="http://www.w3.org/2000/svg" width="1280" height="527">
<path d="M0 0 C422.4 0 844.8 0 1280 0 C1280 173.91 1280 347.82 1280 527 C857.6 527 435.2 527 0 527 C0 353.09 0 179.18 0 0 Z " fill="#0921CA" transform="translate(0,0)"/>
<path d="M0 0 C0.91 -0 1.83 -0.01 2.77 -0.01 C4.24 -0.01 4.24 -0.01 5.74 -0 C6.75 -0 7.76 -0.01 8.8 -0.01 C10.93 -0.01 13.07 -0.01 15.2 -0 C18.47 0 21.75 -0 25.02 -0.01 C27.09 -0.01 29.17 -0.01 31.24 -0 C32.71 -0.01 32.71 -0.01 34.22 -0.01 C35.13 -0.01 36.03 -0 36.97 0 C37.77 0 38.57 0 39.4 0 C41.35 0.13 41.35 0.13 43.35 1.13 C45.33 1.12 47.31 1.07 49.29 1 C58.28 0.93 65.41 3.07 73.35 7.13 C76 7.92 78.65 8.52 81.35 9.13 C82.05 9.31 82.75 9.48 83.48 9.66 C85.35 10.16 85.35 10.16 87.29 10.44 C89.35 11.13 89.35 11.13 91.54 13.13 C94.51 15.24 95.39 15.38 98.85 15.57 C102.48 15.82 103.17 15.97 106.1 18.44 C106.85 19.33 107.59 20.22 108.35 21.13 C109.24 21.83 110.13 22.53 111.04 23.25 C113.35 25.13 113.35 25.13 115.35 28.13 C115.6 30.64 115.6 30.64 115.59 33.6 C115.58 34.67 115.58 35.73 115.58 36.83 C115.57 37.94 115.56 39.05 115.54 40.19 C115.54 41.31 115.54 42.42 115.54 43.57 C115.5 51.85 115.5 51.85 114.35 54.13 C114.23 55.75 114.13 57.38 114.04 59 C113.63 63.54 112.87 65.13 109.35 68.13 C108.19 70.41 107.3 72.74 106.35 75.13 C105.35 76.13 105.35 76.13 101.98 76.44 C96.29 76.38 88.89 74.72 84.81 70.56 C82.91 68.69 81.46 68.55 78.85 68.13 C75.28 67.56 73.77 66.82 71.35 64.13 C67.51 62.15 63.45 61.49 59.24 60.7 C56.02 60.06 52.85 59.29 49.67 58.5 C45.07 57.42 41.06 56.8 36.35 57.13 C36.35 56.47 36.35 55.81 36.35 55.13 C31.96 54.91 27.57 54.71 23.18 54.54 C21.69 54.47 20.2 54.41 18.71 54.33 C10.33 53.91 3.21 53.84 -4.65 57.13 C-6.91 57.67 -9.18 58.17 -11.46 58.63 C-18.41 60.08 -18.41 60.08 -25.33 61.63 C-26.76 61.95 -26.76 61.95 -28.22 62.29 C-30.83 63.19 -31.78 64.16 -33.65 66.13 C-35.48 66.87 -35.48 66.87 -37.46 67.44 C-41.38 68.8 -43.45 70.68 -46.21 73.72 C-48.36 75.84 -50.93 76.86 -53.65 78.13 C-55.33 79.44 -56.99 80.78 -58.65 82.13 C-59.82 82.78 -59.82 82.78 -61.03 83.44 C-64.01 85.37 -65.76 87.41 -67.96 90.19 C-69.12 91.66 -69.12 91.66 -70.31 93.16 C-71.47 94.63 -71.47 94.63 -72.65 96.13 C-73.35 96.99 -74.06 97.84 -74.79 98.72 C-80.99 106.23 -85.91 114 -89.71 122.97 C-90.65 125.15 -91.69 127.26 -92.77 129.38 C-95.43 134.7 -96.87 138.87 -97.11 144.85 C-97.65 147.13 -97.65 147.13 -99.57 149.38 C-102.25 152.93 -102.81 156.28 -103.4 160.57 C-103.52 161.42 -103.64 162.27 -103.76 163.15 C-106.94 188.58 -106.82 214.68 -93.65 237.13 C-93.65 237.79 -93.65 238.45 -93.65 239.13 C-92.88 239.4 -92.12 239.67 -91.33 239.94 C-88.76 241.08 -87.38 241.94 -85.65 244.13 C-85.65 244.79 -85.65 245.45 -85.65 246.13 C-84.77 246.53 -84.77 246.53 -83.87 246.95 C-81.65 248.13 -79.99 249.45 -78.08 251.07 C-74.09 254.11 -70.41 255.28 -65.57 256.41 C-62.51 257.16 -59.61 258.14 -56.65 259.19 C-47.84 262.13 -39.59 263.31 -30.33 263.44 C-29.57 263.46 -28.8 263.48 -28.01 263.5 C-23.07 263.49 -20.05 262.55 -15.65 260.13 C-12.82 259.5 -12.82 259.5 -9.96 259.13 C0.51 257.97 0.51 257.97 9.35 253.13 C9.89 250.37 10.34 247.66 10.73 244.88 C11.81 237.77 13.4 231.15 15.51 224.27 C16.51 220.54 16.95 216.96 17.18 213.12 C17.35 211.13 17.35 211.13 18.35 208.13 C18.46 205.69 18.54 203.25 18.6 200.82 C18.87 194.48 19.97 191.63 24.35 187.13 C24.07 184.01 24.07 184.01 23.35 181.13 C22.28 181.14 22.28 181.14 21.17 181.14 C14.39 181.18 7.61 181.21 0.82 181.23 C-2.66 181.24 -6.15 181.26 -9.64 181.28 C-13.65 181.31 -17.66 181.32 -21.66 181.32 C-22.92 181.34 -24.17 181.35 -25.46 181.36 C-26.62 181.36 -27.78 181.36 -28.98 181.36 C-30.52 181.36 -30.52 181.36 -32.08 181.37 C-34.65 181.13 -34.65 181.13 -37.65 179.13 C-38.63 176.48 -38.63 176.48 -39.4 173.32 C-39.79 171.76 -39.79 171.76 -40.19 170.17 C-40.66 167.05 -40.64 165.11 -39.65 162.13 C-38.65 161.12 -37.65 160.12 -36.65 159.13 C-36.25 157.22 -36.25 157.22 -36.27 155.13 C-35.77 148.93 -33.57 141.78 -28.85 137.51 C-26.28 135.9 -24.87 135.75 -21.86 135.73 C-20.9 135.72 -19.95 135.71 -18.96 135.7 C-17.91 135.7 -16.87 135.71 -15.79 135.71 C-14.13 135.7 -14.13 135.7 -12.44 135.68 C-8.78 135.66 -5.12 135.66 -1.46 135.66 C1.08 135.65 3.62 135.65 6.16 135.64 C11.49 135.62 16.82 135.62 22.14 135.63 C28.3 135.64 34.45 135.61 40.61 135.58 C46.53 135.54 52.46 135.53 58.38 135.54 C60.9 135.54 63.42 135.53 65.94 135.51 C69.46 135.49 72.98 135.5 76.5 135.51 C77.54 135.5 78.59 135.49 79.67 135.47 C86.72 135.56 86.72 135.56 89.97 138.48 C92.43 143.2 92.55 147.3 92.54 152.5 C92.54 153.31 92.54 154.11 92.54 154.94 C92.48 161.81 91.61 168.38 90.35 175.13 C90.19 176.43 90.02 177.73 89.85 179.07 C89.33 182.26 88.38 185.06 87.35 188.13 C84.94 196.85 83.61 205.64 82.53 214.62 C81.91 219.46 80.9 223.58 79.06 228.1 C77.73 231.91 77.36 235.89 76.85 239.88 C74.34 258.17 74.34 258.17 71.35 264.13 C71.15 265.53 70.99 266.94 70.85 268.35 C68.76 286.82 68.76 286.82 61.35 294.13 C60.79 294.71 60.23 295.28 59.65 295.88 C54.47 300.4 48.1 302.12 41.65 304.05 C38.26 305 38.26 305 35.35 307.13 C33.24 307.69 33.24 307.69 30.83 308.13 C29.95 308.29 29.08 308.46 28.18 308.63 C27.27 308.79 26.36 308.96 25.42 309.13 C23.62 309.46 21.81 309.79 20.02 310.13 C19.22 310.27 18.42 310.42 17.6 310.57 C15.29 311.15 13.47 312.05 11.35 313.13 C4.95 315.1 -1.48 315.49 -8.15 315.69 C-9.93 315.75 -11.71 315.82 -13.49 315.88 C-14.26 315.91 -15.04 315.93 -15.84 315.96 C-17.67 315.94 -17.67 315.94 -18.65 317.13 C-21.69 317.23 -24.71 317.27 -27.75 317.26 C-28.67 317.26 -29.59 317.26 -30.54 317.27 C-32.49 317.27 -34.44 317.26 -36.39 317.26 C-39.37 317.25 -42.35 317.26 -45.32 317.27 C-47.22 317.27 -49.11 317.26 -51 317.26 C-51.89 317.26 -52.78 317.27 -53.7 317.27 C-57.83 317.25 -61.61 317.11 -65.65 316.13 C-67.69 315.98 -69.73 315.86 -71.77 315.75 C-78.91 315.24 -85.59 313.85 -92.19 311.05 C-94.61 310.14 -96.34 309.94 -98.9 309.88 C-103.77 309.45 -106.57 307.39 -110.45 304.55 C-112.66 303.12 -114.33 302.53 -116.9 302 C-120.86 301.08 -122.79 299.98 -125.65 297.13 C-125.65 296.47 -125.65 295.81 -125.65 295.13 C-126.45 294.96 -127.26 294.8 -128.1 294.63 C-133.17 292.49 -136.49 289 -140.4 285.19 C-141.16 284.46 -141.93 283.73 -142.72 282.98 C-145.7 280.13 -148.35 277.57 -150.65 274.13 C-150.65 273.14 -150.65 272.15 -150.65 271.13 C-151.23 270.9 -151.82 270.67 -152.43 270.43 C-159.43 266.32 -162.52 256.5 -164.73 249.12 C-165.65 246.11 -166.75 243.24 -167.9 240.32 C-169.47 236.06 -169.91 232.7 -169.65 228.13 C-169.8 227.3 -169.96 226.48 -170.12 225.63 C-170.85 220.72 -170.79 215.88 -170.78 210.93 C-170.78 209.86 -170.78 208.79 -170.78 207.68 C-170.78 205.42 -170.78 203.16 -170.78 200.91 C-170.77 197.44 -170.78 193.98 -170.78 190.52 C-170.78 188.32 -170.78 186.13 -170.78 183.93 C-170.78 182.89 -170.78 181.86 -170.78 180.79 C-170.78 179.82 -170.78 178.86 -170.77 177.87 C-170.77 177.03 -170.77 176.18 -170.77 175.31 C-170.65 173.13 -170.65 173.13 -169.65 170.13 C-169.63 168.48 -169.65 166.84 -169.71 165.19 C-169.83 149.76 -169.83 149.76 -166.16 145.34 C-163.45 141.38 -163.48 136.46 -162.92 131.77 C-162.2 126.66 -161.11 124.09 -157.65 120.13 C-156.61 117.31 -156.61 117.31 -155.9 114.25 C-154.34 108.84 -152.3 104.07 -149.65 99.13 C-149.31 98.51 -148.98 97.88 -148.64 97.24 C-146.61 93.56 -144.28 90.39 -141.65 87.13 C-141.15 85.95 -140.66 84.78 -140.15 83.57 C-138.64 80.11 -137.29 78.7 -134.65 76.13 C-133.79 74.55 -133.79 74.55 -132.91 72.95 C-130.58 68.77 -127.58 65.5 -124.27 62.07 C-123.66 61.43 -123.05 60.79 -122.43 60.13 C-120.51 58.12 -118.58 56.12 -116.65 54.13 C-116.01 53.47 -115.38 52.82 -114.72 52.14 C-112.87 50.23 -111.01 48.33 -109.15 46.44 C-108.58 45.87 -108.02 45.29 -107.44 44.7 C-104.08 41.33 -100.67 38.7 -96.65 36.13 C-95.5 35.15 -94.37 34.16 -93.27 33.13 C-90.23 30.46 -87.15 28.7 -83.49 27 C-81.1 25.87 -78.89 24.52 -76.65 23.13 C-75.8 22.63 -74.95 22.14 -74.08 21.63 C-71.68 20.23 -71.68 20.23 -69.83 18.63 C-66.62 16.43 -63.25 15.91 -59.5 15.07 C-56.51 14.23 -56.51 14.23 -53.8 12.16 C-50.1 9.77 -46.84 8.92 -42.58 8 C-38.12 7 -33.86 5.93 -29.65 4.13 C-23.63 2.3 -17.87 1.74 -11.6 1.38 C-8.8 1.23 -8.8 1.23 -6.75 0.62 C-4.43 0.08 -2.38 0 0 0 Z " fill="#FAFBFE" transform="translate(1126.64501953125,111.87060546875)"/>
<path d="M0 0 C1.08 -0 2.16 -0.01 3.27 -0.01 C6.85 -0.02 10.43 0 14.01 0.02 C16.51 0.03 19 0.03 21.49 0.03 C26.73 0.03 31.97 0.05 37.21 0.07 C43.89 0.11 50.57 0.12 57.25 0.11 C62.41 0.11 67.57 0.13 72.73 0.14 C75.19 0.15 77.65 0.15 80.11 0.15 C112.25 0.19 112.25 0.19 123.85 5.36 C126.75 6.64 129.72 7.67 132.71 8.74 C149.91 15.42 159.21 25.79 167.77 41.61 C169.24 44.51 169.24 44.51 171.4 46.49 C171.77 48.51 171.77 48.51 171.96 50.86 C172.21 54.07 172.21 54.07 172.9 57.19 C173.57 60.32 173.52 63.31 173.53 66.52 C173.53 67.19 173.53 67.86 173.53 68.56 C173.53 69.98 173.53 71.39 173.53 72.81 C173.52 74.98 173.53 77.14 173.53 79.31 C173.53 80.69 173.53 82.07 173.53 83.45 C173.53 84.71 173.53 85.96 173.52 87.25 C173.42 89.91 173.11 91.96 172.4 94.49 C172.17 98.31 172.01 102.13 171.87 105.95 C171.37 109.65 170.72 110.73 168.4 113.49 C167.79 115.19 167.26 116.93 166.77 118.67 C165 124.22 162.66 129.23 159.96 134.36 C159.59 135.07 159.21 135.79 158.83 136.52 C156.43 140.99 153.73 144.67 150.4 148.49 C149.35 149.9 148.31 151.31 147.27 152.74 C142.94 158.34 137.73 162.85 132.4 167.49 C131.72 168.1 131.04 168.71 130.34 169.35 C127.67 171.74 125.46 173.46 122.21 175.05 C119.21 176.29 119.21 176.29 117.65 179.17 C115.4 181.49 115.4 181.49 112.93 181.81 C110.4 181.8 107.91 181.7 105.4 181.49 C105.07 182.48 104.74 183.47 104.4 184.49 C99.82 187.45 94.85 188.43 89.59 189.54 C86.89 190.34 85.04 191.19 82.63 192.54 C77.98 194.96 73.69 195.11 68.52 195.17 C66.84 195.22 65.15 195.26 63.47 195.31 C62.36 195.33 62.36 195.33 61.24 195.34 C59.3 195.38 59.3 195.38 57.4 196.49 C54.92 196.55 52.47 196.55 49.99 196.52 C40.26 196.45 30.56 196.7 20.83 196.99 C19.13 197.03 17.42 197.08 15.72 197.13 C11.61 197.25 7.5 197.37 3.4 197.49 C3.89 198.85 3.89 198.85 4.4 200.24 C5.4 203.49 5.4 203.49 5.4 207.49 C4.41 208.15 3.42 208.81 2.4 209.49 C1.39 212.71 1.39 212.71 0.77 216.49 C0.64 217.16 0.52 217.84 0.39 218.53 C-0.44 223.12 -1.04 227.69 -1.43 232.34 C-2.34 243.27 -2.34 243.27 -5.1 248.11 C-6.78 251.88 -7.12 254.95 -7.39 259.02 C-7.68 262.42 -8.42 265.66 -9.18 268.99 C-9.45 270.22 -9.45 270.22 -9.73 271.49 C-10.01 272.72 -10.01 272.72 -10.3 273.99 C-10.76 276.52 -10.76 276.52 -9.97 279.11 C-9.85 279.89 -9.73 280.68 -9.6 281.49 C-10.58 282.51 -11.59 283.51 -12.6 284.49 C-13.42 287.76 -14.06 291.04 -14.66 294.36 C-17.34 298.67 -19.89 299.43 -24.69 300.79 C-32.11 302.11 -39.55 302.07 -47.07 302.01 C-49.93 301.99 -52.79 302.01 -55.65 302.03 C-57.48 302.03 -59.32 302.02 -61.16 302.02 C-62 302.03 -62.85 302.03 -63.72 302.04 C-70.65 301.93 -74.71 299.94 -80.04 295.42 C-81.6 293.49 -81.6 293.49 -81.6 290.49 C-80.8 290.16 -80 289.83 -79.17 289.49 C-76.37 287.75 -76.37 287.75 -76.09 284.92 C-75.93 282.94 -75.82 280.96 -75.75 278.98 C-75.6 276.49 -75.6 276.49 -74.6 274.49 C-74.29 271.89 -74.1 269.3 -73.89 266.7 C-73.6 264.49 -73.6 264.49 -72.6 263.49 C-72.06 260.55 -71.64 257.61 -71.2 254.66 C-70.6 251.49 -70.6 251.49 -69.64 248.72 C-68.55 245.32 -67.94 242.05 -67.39 238.51 C-67.17 237.19 -66.96 235.86 -66.75 234.54 C-66.43 232.48 -66.1 230.41 -65.78 228.35 C-65.47 226.34 -65.15 224.33 -64.82 222.33 C-64.64 221.13 -64.45 219.94 -64.26 218.71 C-63.66 215.75 -62.79 213.26 -61.6 210.49 C-61.2 208.12 -61.2 208.12 -61.04 205.8 C-60.7 201.68 -60.7 201.68 -59.6 199.49 C-59.5 198.13 -59.42 196.78 -59.35 195.42 C-58.92 190.44 -57.65 185.98 -56.17 181.24 C-54.21 174.92 -52.93 168.84 -52.14 162.26 C-51.47 157.54 -50.53 152.9 -49.54 148.24 C-49.37 147.4 -49.19 146.57 -49.01 145.71 C-47.74 139.75 -47.74 139.75 -46.6 137.49 C-46.45 135.84 -46.33 134.2 -46.23 132.55 C-45.82 127.49 -44.73 122.96 -43.29 118.11 C-42.64 115.64 -42.31 113.35 -42.1 110.8 C-41.85 107.75 -41.27 105.32 -40.1 102.49 C-38.64 98.9 -38.18 95.65 -37.84 91.81 C-37.07 84.17 -34.92 76.75 -33 69.33 C-31.75 64.36 -31.04 59.58 -30.6 54.49 C-30.11 53.5 -30.11 53.5 -29.6 52.49 C-29.35 51.13 -29.14 49.78 -28.96 48.42 C-28.84 47.6 -28.72 46.79 -28.6 45.95 C-28.36 44.25 -28.12 42.55 -27.89 40.85 C-27.28 36.75 -26.54 33.01 -25.03 29.15 C-23.86 26.14 -23.25 24.09 -23.1 20.92 C-22.47 13.81 -19.89 9.25 -14.6 4.49 C-14.11 3.79 -13.62 3.09 -13.11 2.37 C-9.08 -0.66 -4.91 -0.05 0 0 Z " fill="#FAFBFE" transform="translate(767.60498046875,119.51416015625)"/>
<path d="M0 0 C1.21 0.01 1.21 0.01 2.44 0.01 C3.27 0.01 4.1 0.01 4.95 0.01 C6.71 0.01 8.46 0.01 10.22 0.02 C12.9 0.03 15.58 0.02 18.26 0 C19.96 0.01 21.67 0.01 23.38 0.01 C24.18 0.01 24.98 0 25.8 0 C30.05 0.04 33.22 0.39 37.11 2.28 C38.54 2.6 39.98 2.89 41.42 3.15 C50.51 5.2 55.24 8.43 60.41 16.41 C63.79 23.07 63.17 30.78 62.99 38.05 C62.92 40.8 62.92 43.54 62.94 46.29 C62.92 48.05 62.9 49.8 62.88 51.56 C62.88 52.38 62.88 53.19 62.88 54.03 C62.75 58.06 62.57 59.84 59.6 62.68 C58.78 63.21 57.96 63.73 57.11 64.28 C56.34 66.57 56.34 66.57 56.23 69.03 C55.43 74.17 53.56 76.66 49.97 80.33 C48.08 82.3 46.59 84.35 45.05 86.59 C42.49 90.08 40.11 91.54 36.11 93.28 C35.5 93.92 34.89 94.56 34.27 95.22 C31.82 97.55 29.86 98.38 26.67 99.47 C25.74 99.79 24.82 100.11 23.86 100.45 C20.21 101.55 16.93 102.28 13.11 102.28 C12.12 102.77 12.12 102.77 11.11 103.28 C9 103.42 6.89 103.5 4.78 103.56 C2.87 103.62 2.87 103.62 0.92 103.67 C-0.44 103.71 -1.79 103.74 -3.14 103.78 C-5.77 103.85 -8.4 103.92 -11.03 104 C-12.79 104.04 -12.79 104.04 -14.58 104.09 C-17.9 104.21 -17.9 104.21 -21.17 104.86 C-23.89 105.28 -23.89 105.28 -26.27 104.28 C-28.67 101.32 -28.23 98.96 -27.89 95.28 C-27.4 94.78 -27.4 94.78 -26.89 94.28 C-26.9 92.86 -26.95 91.44 -27.02 90.03 C-27.08 85.75 -26.12 83.93 -23.89 80.28 C-23.48 77.68 -23.27 75.11 -23.1 72.48 C-22.89 70.28 -22.89 70.28 -21.89 68.28 C-21.73 66.92 -21.59 65.57 -21.49 64.21 C-20.99 59.4 -19.8 55.01 -18.39 50.4 C-16.67 44.53 -15.46 39.06 -15.13 32.92 C-14.65 27.6 -13.16 22.45 -11.89 17.28 C-11.53 15.63 -11.18 13.99 -10.83 12.34 C-8.1 0.07 -8.1 0.07 0 0 Z " fill="#0A21CA" transform="translate(810.8920440673828,165.72210693359375)"/>
<path d="M0 0 C2.19 -0.01 4.39 -0.02 6.58 -0.03 C10.08 -0.04 13.58 -0.05 17.08 -0.05 C19.02 -0.05 20.95 -0.06 22.89 -0.07 C24.06 -0.07 25.23 -0.06 26.43 -0.06 C27.45 -0.06 28.47 -0.06 29.52 -0.07 C32.5 0.2 34.66 0.83 37.32 2.18 C38.26 4.18 38.26 4.18 38.32 6.18 C36.32 8.18 36.32 8.18 34.32 8.43 C33.09 8.42 33.09 8.42 31.83 8.42 C30.41 8.43 30.41 8.43 28.96 8.43 C27.92 8.42 26.88 8.42 25.81 8.41 C24.17 8.41 24.17 8.41 22.5 8.41 C18.87 8.41 15.25 8.39 11.62 8.38 C9.12 8.37 6.61 8.37 4.1 8.37 C-1.84 8.36 -7.77 8.35 -13.71 8.33 C-21.13 8.3 -28.55 8.29 -35.97 8.28 C-49.2 8.26 -62.44 8.22 -75.68 8.18 C-75.11 5.31 -74.82 4.32 -72.68 2.18 C-66.15 0.74 -59.46 0.8 -52.81 0.62 C-52.09 0.6 -51.38 0.58 -50.65 0.56 C-33.77 0.09 -16.88 0.04 0 0 Z " fill="#000FC5" transform="translate(1176.6807022094727,238.81877517700195)"/>
<path d="M0 0 C4.18 -0.07 8.36 -0.12 12.53 -0.16 C14.23 -0.19 14.23 -0.19 15.96 -0.22 C22.35 -0.25 27.56 0.62 33.47 3.09 C33.97 5.57 33.97 5.57 34.47 8.09 C-0.18 8.42 -34.83 8.75 -70.53 9.09 C-70.53 5.09 -70.53 5.09 -69.28 3.4 C-65.93 0.9 -62.29 0.95 -58.23 0.89 C-57.16 0.87 -56.1 0.85 -55 0.83 C-53.85 0.81 -52.69 0.79 -51.51 0.77 C-50.3 0.75 -49.1 0.73 -47.86 0.71 C-43.96 0.65 -40.06 0.59 -36.15 0.53 C-34.84 0.51 -33.52 0.49 -32.16 0.47 C-24.41 0.35 -16.65 0.24 -8.9 0.14 C-5.93 0.1 -2.97 0.05 0 0 Z " fill="#0110C5" transform="translate(832.52880859375,110.90869140625)"/>
<path d="M0 0 C19.47 0 38.94 0 59 0 C59.66 1.32 60.32 2.64 61 4 C59.83 5.97 59.83 5.97 58 8 C55.63 8.49 55.63 8.49 52.79 8.46 C51.19 8.46 51.19 8.46 49.55 8.45 C48.4 8.43 47.25 8.4 46.06 8.38 C44.29 8.35 44.29 8.35 42.47 8.33 C33.47 8.17 24.48 7.72 15.5 7.12 C13.69 7.01 13.69 7.01 11.85 6.89 C10.18 6.76 10.18 6.76 8.47 6.63 C7.48 6.56 6.5 6.49 5.48 6.41 C3 6 3 6 0 4 C0 2.68 0 1.36 0 0 Z " fill="#0211C5" transform="translate(1091,295)"/>
<path d="M0 0 C2.06 0 4.11 -0.04 6.17 -0.08 C14.43 -0.16 20.64 0.92 27.63 5.5 C25.63 8.5 25.63 8.5 23.76 9.18 C21.64 9.5 19.65 9.63 17.5 9.63 C16.7 9.63 15.9 9.64 15.08 9.64 C14.22 9.64 13.36 9.64 12.48 9.63 C11.59 9.63 10.7 9.64 9.78 9.64 C7.9 9.64 6.02 9.64 4.14 9.63 C1.27 9.63 -1.6 9.63 -4.47 9.64 C-6.3 9.64 -8.13 9.64 -9.96 9.63 C-10.81 9.64 -11.67 9.64 -12.55 9.64 C-16.94 9.62 -21.05 9.38 -25.37 8.5 C-24.31 5.88 -23.28 4 -20.75 2.6 C-13.94 0.14 -7.16 -0.02 0 0 Z " fill="#0C19C6" transform="translate(1144.374267578125,103.4990234375)"/>
<path d="M0 0 C0.84 0 1.68 0.01 2.54 0.01 C5.22 0.03 7.9 0.07 10.58 0.11 C12.4 0.12 14.22 0.13 16.03 0.15 C20.49 0.18 24.94 0.23 29.39 0.29 C29.89 1.78 29.89 1.78 30.39 3.29 C31.05 3.29 31.71 3.29 32.39 3.29 C31.73 4.94 31.07 6.59 30.39 8.29 C25.18 8.46 19.97 8.62 14.75 8.78 C12.98 8.83 11.2 8.88 9.43 8.94 C6.88 9.02 4.33 9.1 1.78 9.17 C0.59 9.21 0.59 9.21 -0.62 9.25 C-3.91 9.34 -6.46 9.34 -9.61 8.29 C-10.79 5.73 -10.79 5.73 -11.61 3.29 C-8.28 -0.6 -4.82 -0.09 0 0 Z " fill="#0110C5" transform="translate(813.60546875,165.70703125)"/>
<path d="M0 0 C3.3 0 6.6 0 10 0 C10.5 0.99 10.5 0.99 11 2 C10.16 4.44 9.47 5.7 7.29 7.1 C4.45 8.22 2.1 8.32 -0.95 8.41 C-2.12 8.45 -3.29 8.49 -4.5 8.53 C-5.74 8.56 -6.97 8.59 -8.25 8.62 C-10.14 8.68 -10.14 8.68 -12.06 8.74 C-15.71 8.84 -19.35 8.92 -23 9 C-23.94 9.02 -24.88 9.05 -25.85 9.07 C-35.51 9.3 -35.51 9.3 -39 9 C-39.66 8.34 -40.32 7.68 -41 7 C-41 5.35 -41 3.7 -41 2 C-27.47 1.67 -13.94 1.34 0 1 C0 0.67 0 0.34 0 0 Z " fill="#000EC5" transform="translate(815,316)"/>
<path d="M0 0 C1.73 0.04 3.46 0.09 5.19 0.14 C6.1 0.17 7.01 0.19 7.94 0.21 C10.86 0.29 13.77 0.38 16.69 0.46 C18.66 0.51 20.63 0.57 22.6 0.62 C27.44 0.75 32.28 0.88 37.12 1.02 C37.75 2.83 37.75 2.83 38.12 5.02 C36.12 8.02 36.12 8.02 33.88 8.7 C28.52 9.33 23.14 9.21 17.75 9.21 C16.54 9.22 15.33 9.23 14.09 9.25 C4.88 9.26 -1.37 8.51 -8.88 3.02 C-8.24 2.71 -7.6 2.4 -6.94 2.08 C-2.93 0.02 -2.93 0.02 0 0 Z " fill="#0110C5" transform="translate(1070.877197265625,427.978271484375)"/>
<path d="M0 0 C0.68 0.32 1.35 0.65 2.05 0.98 C5.56 2.19 8.48 2.29 12.2 2.34 C12.88 2.36 13.55 2.37 14.25 2.39 C17.13 2.45 20 2.49 22.88 2.53 C24.99 2.57 27.09 2.61 29.2 2.66 C31.08 2.68 31.08 2.68 33.01 2.71 C36 3 36 3 38 5 C37.75 7.06 37.75 7.06 37 9 C34.2 10.4 31.8 10.2 28.67 10.28 C26.76 10.34 26.76 10.34 24.81 10.39 C23.46 10.43 22.1 10.47 20.75 10.5 C18.12 10.57 15.49 10.64 12.86 10.72 C11.1 10.76 11.1 10.76 9.31 10.81 C5.99 10.93 5.99 10.93 2.72 11.58 C0 12 0 12 -2.38 10.94 C-4 9 -4 9 -4.25 5.81 C-4.17 4.88 -4.09 3.96 -4 3 C-3.01 2.67 -2.02 2.34 -1 2 C-0.67 1.34 -0.34 0.68 0 0 Z " fill="#0311C5" transform="translate(787,259)"/>
<path d="M0 0 C1.28 0.05 2.56 0.09 3.88 0.14 C4.54 0.17 5.2 0.2 5.87 0.23 C7.9 0.32 9.93 0.4 11.95 0.47 C21.86 0.87 21.86 0.87 23.01 2.01 C23.05 4.01 23.05 6.01 23.01 8.01 C18.64 10.2 12.75 9.24 7.95 9.26 C6.74 9.28 5.54 9.3 4.3 9.32 C-2.82 9.36 -8.39 8.71 -14.99 6.01 C-14.33 5.68 -13.67 5.35 -12.99 5.01 C-13.32 4.02 -13.65 3.03 -13.99 2.01 C-9.1 0.42 -5.2 -0.2 0 0 Z " fill="#000EC5" transform="translate(1137.9921875,164.98828125)"/>
<path d="M0 0 C0 15.84 0 31.68 0 48 C-1.32 47.67 -2.64 47.34 -4 47 C-6.22 39.86 -6.3 33.13 -6.25 25.69 C-6.26 24.53 -6.27 23.37 -6.27 22.17 C-6.26 15.07 -6.11 7.84 -4 1 C-2 0 -2 0 0 0 Z " fill="#000EC5" transform="translate(955,285)"/>
<path d="M0 0 C1.1 -0 2.2 -0.01 3.33 -0.01 C5.03 0 5.03 0 6.77 0.02 C8.49 0 8.49 0 10.24 -0.01 C11.34 -0.01 12.43 -0 13.56 0 C14.56 0 15.56 0 16.59 0.01 C19.15 0.27 19.15 0.27 22.15 2.27 C21.96 4.64 21.96 4.64 21.15 7.27 C16.55 9.99 11.51 9.56 6.34 9.52 C5.04 9.53 5.04 9.53 3.72 9.54 C-1.8 9.52 -6.55 8.82 -11.85 7.27 C-11.66 4.89 -11.66 4.89 -10.85 2.27 C-7.2 0.35 -4.09 0.01 0 0 Z " fill="#0513C5" transform="translate(1087.8515625,366.734375)"/>
<path d="M0 0 C5.36 -0.1 10.71 -0.17 16.07 -0.22 C17.89 -0.24 19.72 -0.27 21.54 -0.3 C24.16 -0.35 26.78 -0.37 29.39 -0.39 C30.62 -0.42 30.62 -0.42 31.87 -0.45 C37.54 -0.46 37.54 -0.46 40.04 2.02 C40.51 3 40.51 3 41 4 C35.53 8.71 30.71 8.58 23.69 8.44 C22.69 8.44 21.7 8.45 20.67 8.46 C14.72 8.41 8.2 8.24 3 5 C2.39 2.95 2.39 2.95 2 1 C1.34 0.67 0.68 0.34 0 0 Z " fill="#000EC5" transform="translate(697,421)"/>
<path d="M0 0 C0.66 0 1.32 0 2 0 C2 0.66 2 1.32 2 2 C2.66 2 3.32 2 4 2 C4 2.66 4 3.32 4 4 C4.66 4.33 5.32 4.66 6 5 C6.2 8.75 6.38 12.5 6.56 16.25 C6.62 17.31 6.67 18.38 6.73 19.47 C6.78 20.5 6.83 21.52 6.88 22.58 C6.93 23.52 6.97 24.46 7.02 25.43 C6.99 29.53 6.29 31.56 4 35 C3.34 35 2.68 35 2 35 C2 35.66 2 36.32 2 37 C1.34 37 0.68 37 0 37 C-1.79 31.64 -1.43 25.83 -1.61 20.21 C-1.69 17.94 -1.78 15.67 -1.87 13.4 C-1.92 11.97 -1.97 10.53 -2.01 9.09 C-2.06 7.78 -2.1 6.47 -2.15 5.12 C-2 2 -2 2 0 0 Z " fill="#0110C5" transform="translate(942,176)"/>
<path d="M0 0 C1.86 -0.06 1.86 -0.06 3.75 -0.12 C4.79 -0.16 4.79 -0.16 5.86 -0.2 C9.51 0.14 11.53 1.53 14.12 4.1 C21.55 13.83 21.01 22.83 20.62 34.62 C20.6 36.48 20.58 38.34 20.57 40.19 C20.54 41.95 20.51 43.71 20.48 45.48 C20.46 46.3 20.45 47.13 20.43 47.98 C20.24 53.76 20.24 53.76 18 56 C15.38 56.12 15.38 56.12 13 56 C11.63 52.89 12.09 51.74 13.25 48.44 C15 45 15 45 16.58 43.58 C19.46 40.37 18.55 35.48 18.56 31.38 C18.6 30.41 18.64 29.45 18.67 28.46 C18.72 21.17 16.88 16.45 12 11 C10.28 9.6 8.55 8.38 6.68 7.2 C3.91 5.22 2.06 2.69 0 0 Z " fill="#0413C5" transform="translate(853,172)"/>
<path d="M0 0 C2.47 0.5 2.47 0.5 5 1 C5 1.66 5 2.32 5 3 C5.66 3 6.32 3 7 3 C8.84 9.51 8.57 15.73 6 22 C5.34 22 4.68 22 4 22 C3.34 23.32 2.68 24.64 2 26 C0 24 0 24 -0.23 21.57 C-0.22 20.57 -0.21 19.58 -0.2 18.55 C-0.19 17.48 -0.18 16.4 -0.18 15.29 C-0.16 14.17 -0.14 13.04 -0.12 11.88 C-0.12 10.74 -0.11 9.6 -0.1 8.43 C-0.07 5.62 -0.04 2.81 0 0 Z " fill="#000FC5" transform="translate(1242,140)"/>
<path d="M0 0 C-0.31 2.89 -0.85 3.87 -3.06 5.81 C-4.03 6.53 -5 7.26 -6 8 C-11.74 12.8 -17.1 17.95 -22.38 23.25 C-23.09 23.96 -23.8 24.66 -24.53 25.39 C-25.55 26.41 -25.55 26.41 -26.59 27.45 C-27.19 28.06 -27.8 28.67 -28.43 29.3 C-30.19 31.12 -30.19 31.12 -32 34 C-33.32 33.67 -34.64 33.34 -36 33 C-35.28 32.21 -34.55 31.43 -33.8 30.62 C-27.62 23.93 -27.62 23.93 -21.62 17.06 C-17.68 12.4 -13.32 8.34 -8.65 4.43 C-6.96 3.03 -6.96 3.03 -5.54 1.32 C-4 0 -4 0 0 0 Z " fill="#0210C5" transform="translate(1032,144)"/>
<path d="M0 0 C2.9 0.47 3.87 0.87 6 3 C6.76 6.48 6.39 8.4 4.47 11.39 C2.72 13.68 0.96 15.89 -1 18 C-1.33 18 -1.66 18 -2 18 C-3.53 6.35 -3.53 6.35 -1 1 C-0.67 0.67 -0.34 0.34 0 0 Z " fill="#0210C5" transform="translate(771,327)"/>
<path d="M0 0 C0.5 1.49 0.5 1.49 1 3 C-12.86 3 -26.72 3 -41 3 C-41 4.65 -41 6.3 -41 8 C-41.66 8 -42.32 8 -43 8 C-43.33 6.02 -43.66 4.04 -44 2 C-40.47 0.82 -37.2 0.77 -33.52 0.68 C-32.41 0.65 -32.41 0.65 -31.29 0.62 C-28.94 0.56 -26.6 0.5 -24.25 0.44 C-22.68 0.39 -21.12 0.35 -19.55 0.31 C-13.04 0.13 -6.52 -0.02 0 0 Z " fill="#2934C8" transform="translate(815,315)"/>
<path d="M0 0 C3.88 1.88 3.88 1.88 5 3 C5.67 8.42 5.34 11.09 2 15.5 C1.02 16.68 0.02 17.85 -1 19 C-3.83 14.75 -3.53 10.99 -3 6 C-1.5 2.38 -1.5 2.38 0 0 Z " fill="#0412C5" transform="translate(763,365)"/>
<path d="M0 0 C4.88 1.75 4.88 1.75 6 4 C6.41 6.98 6.55 9.1 4.95 11.73 C3.62 13.38 3.62 13.38 1 16 C0.34 16 -0.32 16 -1 16 C-2.6 11.21 -2.58 6.74 -1 2 C-0.67 1.34 -0.34 0.68 0 0 Z " fill="#0211C5" transform="translate(1214,297)"/>
<path d="M0 0 C0.33 0.66 0.66 1.32 1 2 C1.99 2 2.98 2 4 2 C5.6 5.2 5.5 8.53 5 12 C3.25 14.56 3.25 14.56 1 16 C-1.25 15.75 -1.25 15.75 -3 15 C-3.32 9.01 -2.68 5.36 0 0 Z " fill="#0513C5" transform="translate(1207,334)"/>
<path d="M0 0 C3.88 1.88 3.88 1.88 5 3 C5.39 6.27 5.66 8.87 3.95 11.8 C2.62 13.44 2.62 13.44 0 16 C-0.66 16 -1.32 16 -2 16 C-2.2 14.42 -2.38 12.83 -2.56 11.25 C-2.67 10.37 -2.77 9.49 -2.88 8.58 C-3 6.07 -2.85 4.35 -2 2 C-1.34 1.34 -0.68 0.68 0 0 Z " fill="#0210C5" transform="translate(1027,260)"/>
<path d="M0 0 C0.33 0.66 0.66 1.32 1 2 C1.66 2 2.32 2 3 2 C3.33 1.34 3.66 0.68 4 0 C5.56 10.86 5.56 10.86 3 15 C0.88 17.31 0.88 17.31 -1 19 C-3.87 13.25 -1.7 5.83 0 0 Z " fill="#0312C5" transform="translate(792,217)"/>
<path d="M0 0 C1 -0 2 -0 3.03 -0 C4.08 -0 5.13 0 6.21 0.01 C7.75 0 7.75 0 9.33 -0 C14.66 0 19.76 0.2 25.02 1.13 C21.39 3.55 19.7 3.37 15.38 3.33 C13.43 3.32 13.43 3.32 11.45 3.31 C10.08 3.29 8.7 3.27 7.33 3.26 C5.95 3.25 4.57 3.24 3.18 3.23 C-0.21 3.21 -3.59 3.17 -6.98 3.13 C-6.98 2.47 -6.98 1.81 -6.98 1.13 C-4.49 -0.11 -2.79 0 0 0 Z " fill="#B9BBEF" transform="translate(797.98046875,268.8671875)"/>
<path d="M0 0 C0.05 2.12 0.09 4.25 0.12 6.38 C0.15 7.56 0.17 8.74 0.2 9.96 C0 13 0 13 -2 15 C-4.62 15.12 -4.62 15.12 -7 15 C-8.35 11.94 -7.92 10.76 -6.81 7.5 C-2.93 0 -2.93 0 0 0 Z " fill="#0715C5" transform="translate(873,213)"/>
<path d="M0 0 C2 1.19 2 1.19 3 3 C2.69 5.69 2.69 5.69 2 8 C-1.07 7.93 -4.01 7.75 -7 7 C-9.06 4.44 -9.06 4.44 -10 2 C-6.31 -0.46 -4.37 -0.39 0 0 Z " fill="#000EC5" transform="translate(1204,111)"/>
<path d="M0 0 C1.37 0.02 1.37 0.02 2.78 0.04 C3.7 0.04 4.62 0.05 5.56 0.06 C6.27 0.07 6.98 0.09 7.71 0.1 C7.71 1.75 7.71 3.4 7.71 5.1 C3.07 7.5 -1.2 7.3 -6.29 7.1 C-2.87 0.12 -2.87 0.12 0 0 Z " fill="#0614C5" transform="translate(1087.28515625,112.90234375)"/>
<path d="M0 0 C1.56 1.56 1.56 1.56 3 4 C2.93 7.91 2.88 10.12 0.06 12.94 C-2 14 -2 14 -4 14 C-5.2 11.59 -5.1 10.05 -5.06 7.38 C-5.05 6.56 -5.04 5.74 -5.04 4.9 C-5.02 4.27 -5.01 3.65 -5 3 C-4.01 3.5 -4.01 3.5 -3 4 C-2.01 2.68 -1.02 1.36 0 0 Z " fill="#000EC5" transform="translate(1202,373)"/>
<path d="M0 0 C1.94 1.06 1.94 1.06 4 3 C4.94 6.63 5.21 9.16 4.31 12.81 C2.79 15.34 1.63 15.82 -1 17 C-1.03 14.35 -1.05 11.71 -1.06 9.06 C-1.07 8.31 -1.08 7.55 -1.09 6.78 C-1.1 4.85 -1.05 2.92 -1 1 C-0.67 0.67 -0.34 0.34 0 0 Z " fill="#000EC5" transform="translate(1222,256)"/>
<path d="M0 0 C2.24 3.36 2.26 4.54 2.27 8.47 C2.27 10.07 2.27 10.07 2.27 11.7 C2.27 12.81 2.26 13.92 2.25 15.06 C2.26 16.18 2.27 17.29 2.27 18.44 C2.27 19.5 2.27 20.57 2.27 21.66 C2.26 22.64 2.26 23.61 2.26 24.62 C2 27 2 27 0 29 C-1.13 23.58 -1.15 18.32 -1.12 12.81 C-1.13 11.91 -1.13 11.01 -1.14 10.08 C-1.14 9.21 -1.13 8.35 -1.13 7.46 C-1.13 6.67 -1.13 5.89 -1.13 5.08 C-1 3 -1 3 0 0 Z " fill="#B8BAEF" transform="translate(874,189)"/>
<path d="M0 0 C1.44 -0.05 2.87 -0.09 4.31 -0.12 C5.11 -0.15 5.91 -0.17 6.74 -0.2 C9 0 9 0 12 2 C12.69 4.12 12.69 4.12 13 6 C9.94 7.53 7.37 7.23 4 7 C1.56 5.75 1.56 5.75 0 4 C0 2.68 0 1.36 0 0 Z " fill="#0614C6" transform="translate(1023,421)"/>
<path d="M0 0 C0.66 0 1.32 0 2 0 C3.7 4.73 2.55 9.36 1 14 C-1.06 15.69 -1.06 15.69 -3 17 C-4.76 7.49 -4.76 7.49 -2.06 2.88 C-1.38 1.93 -0.7 0.98 0 0 Z " fill="#0110C5" transform="translate(802,180)"/>
<path d="M0 0 C3.37 0.31 3.37 0.31 7 1 C9 4 9 4 8.75 6.12 C8 8 8 8 6 9 C4 9.04 2 9.04 0 9 C0 6.03 0 3.06 0 0 Z " fill="#3D47C8" transform="translate(0,482)"/>
<path d="M0 0 C2.19 3.28 2.22 3.81 1.75 7.5 C1.62 8.66 1.62 8.66 1.48 9.84 C1 12 1 12 -1 15 C-1.99 15 -2.98 15 -4 15 C-4.66 11.64 -5.15 8.43 -5 5 C-2.56 1.88 -2.56 1.88 0 0 Z " fill="#0614C5" transform="translate(721,245)"/>
<path d="M0 0 C0.33 0 0.66 0 1 0 C1.05 2.12 1.09 4.25 1.12 6.38 C1.15 7.56 1.17 8.74 1.2 9.96 C1 13 1 13 -1 15 C-3.62 14.62 -3.62 14.62 -6 14 C-5.07 8.36 -4.19 4.19 0 0 Z " fill="#0312C5" transform="translate(691,394)"/>
<path d="M0 0 C0.05 1.6 0.09 3.21 0.12 4.81 C0.15 5.71 0.17 6.6 0.2 7.52 C0 10 0 10 -2 13 C-3.32 13 -4.64 13 -6 13 C-6.95 9.3 -6.95 6.7 -6 3 C-5.34 3 -4.68 3 -4 3 C-4 2.34 -4 1.68 -4 1 C-1 0 -1 0 0 0 Z " fill="#0412C5" transform="translate(963,245)"/>
<path d="M0 0 C1.95 0.07 1.95 0.07 3.95 0.15 C5.33 0.2 6.71 0.26 8.09 0.32 C9.47 0.37 10.86 0.42 12.25 0.47 C15.65 0.6 19.06 0.74 22.46 0.88 C22.46 1.54 22.46 2.2 22.46 2.88 C12.23 2.88 2 2.88 -8.54 2.88 C-8.54 2.22 -8.54 1.56 -8.54 0.88 C-5.64 -0.57 -3.23 -0.13 0 0 Z " fill="#0F20C7" transform="translate(1137.5390625,165.12109375)"/>
<path d="M0 0 C-6 6 -6 6 -9.44 6.12 C-13 6 -13 6 -15 5 C-14.67 4.01 -14.34 3.02 -14 2 C-12.35 1.67 -10.7 1.34 -9 1 C-9.66 0.34 -10.32 -0.32 -11 -1 C-3.57 -2.43 -3.57 -2.43 0 0 Z " fill="#000FC5" transform="translate(1157,422)"/>
<path d="M0 0 C0.05 1.6 0.09 3.21 0.12 4.81 C0.15 5.71 0.17 6.6 0.2 7.52 C0 10 0 10 -2 13 C-2.99 13 -3.98 13 -5 13 C-6.6 9.81 -6.66 6.45 -6 3 C-2.34 0 -2.34 0 0 0 Z " fill="#0412C5" transform="translate(707,320)"/>
<path d="M0 0 C0.33 0 0.66 0 1 0 C1.05 1.73 1.09 3.46 1.12 5.19 C1.15 6.15 1.17 7.11 1.2 8.11 C0.99 11.13 0.27 13.27 -1 16 C-1.66 16 -2.32 16 -3 16 C-3.33 16.66 -3.66 17.32 -4 18 C-5.45 9.01 -5.45 9.01 -3.69 5.06 C-3.13 4.38 -2.57 3.7 -2 3 C-1.34 2.01 -0.68 1.02 0 0 Z " fill="#0412C5" transform="translate(1143,322)"/>
<path d="M0 0 C2.27 3.54 1.99 5.71 1.12 9.75 C0.92 10.73 0.72 11.72 0.51 12.73 C0.34 13.48 0.17 14.23 0 15 C-1.32 14.67 -2.64 14.34 -4 14 C-4.63 4.83 -4.63 4.83 -2 1.38 C-1.34 0.92 -0.68 0.47 0 0 Z " fill="#0715C5" transform="translate(736,173)"/>
<path d="M0 0 C0.99 0 1.98 0 3 0 C3.08 1.77 3.14 3.54 3.19 5.31 C3.22 6.3 3.26 7.28 3.29 8.3 C3 11 3 11 1.49 12.86 C1 13.23 0.51 13.61 0 14 C-2.15 10.77 -2.6 8.81 -3 5 C-2.67 4.01 -2.34 3.02 -2 2 C-1.34 2 -0.68 2 0 2 C0 1.34 0 0.68 0 0 Z " fill="#0210C5" transform="translate(711,284)"/>
<path d="M0 0 C0 0.66 0 1.32 0 2 C0.66 2 1.32 2 2 2 C1.62 4.44 1.62 4.44 1 7 C-1.67 8.33 -3.17 7.67 -6 7 C-6.66 5.02 -7.32 3.04 -8 1 C-5.29 -0.35 -2.99 -0.07 0 0 Z " fill="#0513C5" transform="translate(1061,361)"/>
<path d="M0 0 C-0.33 3.96 -0.66 7.92 -1 12 C-1.99 12.33 -2.98 12.66 -4 13 C-6.09 9.6 -6.42 6.96 -6 3 C-4.04 0.2 -3.5 0 0 0 Z " fill="#000EC5" transform="translate(699,359)"/>
<path d="M0 0 C0.99 0 1.98 0 3 0 C3.3 8.97 3.3 8.97 1 12 C0.01 12.33 -0.98 12.66 -2 13 C-3.34 5.81 -3.34 5.81 -1.75 2 C-1.17 1.34 -0.6 0.68 0 0 Z " fill="#0513C5" transform="translate(727,210)"/>
<path d="M0 0 C0.3 8.97 0.3 8.97 -2 12 C-2.99 12.33 -3.98 12.66 -5 13 C-5.91 8.34 -6.37 5.23 -4 1 C-2 0 -2 0 0 0 Z " fill="#0513C5" transform="translate(745,137)"/>
<path d="M0 0 C0.33 0.66 0.66 1.32 1 2 C1.99 2 2.98 2 4 2 C4.69 3.69 4.69 3.69 5 6 C3.75 8.75 3.75 8.75 2 11 C1.01 11 0.02 11 -1 11 C-2.23 4.6 -2.23 4.6 -1.06 1.56 C-0.71 1.05 -0.36 0.53 0 0 Z " fill="#000FC5" transform="translate(755,403)"/>
<path d="M0 0 C0.99 0.66 1.98 1.32 3 2 C2.25 3.94 2.25 3.94 1 6 C-1.95 7.24 -2.87 7.04 -6 6 C-7.39 4.38 -8.73 2.71 -10 1 C-6.47 -0.18 -3.71 -0.2 0 0 Z " fill="#000EC5" transform="translate(1231,188)"/>
<path d="M0 0 C2.56 0.19 2.56 0.19 4.56 2.19 C4.56 3.51 4.56 4.83 4.56 6.19 C2.24 6.57 -0.1 6.9 -2.44 7.19 C-3.44 6.19 -3.44 6.19 -3.56 3.69 C-3.4 0.36 -3.32 0.26 0 0 Z " fill="#0816C5" transform="translate(1223.4375,120.8125)"/>
<path d="M0 0 C0.66 0 1.32 0 2 0 C1.67 1.65 1.34 3.3 1 5 C0.34 5 -0.32 5 -1 5 C0.12 7.97 1.22 10.33 3 13 C0.03 15.48 0.03 15.48 -3 18 C-3.33 17.01 -3.66 16.02 -4 15 C-3.67 14.67 -3.34 14.34 -3 14 C-3.01 12.58 -3.05 11.17 -3.12 9.75 C-3.18 5.68 -2.69 3.21 0 0 Z " fill="#444FCF" transform="translate(787,246)"/>
<path d="M0 0 C0.66 0 1.32 0 2 0 C2.05 1.42 2.09 2.83 2.12 4.25 C2.15 5.04 2.17 5.83 2.2 6.64 C1.98 9.25 1.25 10.73 0 13 C-0.7 15.32 -1.37 17.66 -2 20 C-2.33 20 -2.66 20 -3 20 C-3.41 12.92 -1.9 6.8 0 0 Z " fill="#303DCB" transform="translate(1201,362)"/>
<path d="M0 0 C1.45 0.03 1.45 0.03 2.94 0.06 C2.61 0.72 2.28 1.38 1.94 2.06 C4.41 3.05 4.41 3.05 6.94 4.06 C6.94 4.72 6.94 5.38 6.94 6.06 C4.33 7.03 3.04 7.09 0.31 6.38 C-2.36 4.9 -3.03 3.88 -4.06 1.06 C-3.06 0.06 -3.06 0.06 0 0 Z " fill="#000EC5" transform="translate(1190.0625,172.9375)"/>
<path d="M0 0 C0.12 2.38 0.12 2.38 0 5 C-2 7 -2 7 -5.12 7.12 C-6.55 7.06 -6.55 7.06 -8 7 C-6.53 2.35 -6.53 2.35 -4 0.69 C-2 0 -2 0 0 0 Z " fill="#0513C5" transform="translate(1136,361)"/>
<path d="M0 0 C5.75 1.88 5.75 1.88 8 3 C8 4.98 8 6.96 8 9 C3.34 7.53 3.34 7.53 1.75 5.06 C1.14 3.38 0.56 1.69 0 0 Z " fill="#0311C5" transform="translate(993,404)"/>
<path d="M0 0 C2.64 0 5.28 0 8 0 C8.66 1.65 9.32 3.3 10 5 C3.52 5.37 3.52 5.37 1.06 3.62 C0 2 0 2 0 0 Z " fill="#000EC5" transform="translate(1204,182)"/>
<path d="M0 0 C-0.56 3.27 -1.5 4.83 -4 7 C-4.99 6.67 -5.98 6.34 -7 6 C-7.33 4.35 -7.66 2.7 -8 1 C-4.93 -0.86 -3.4 -1.22 0 0 Z " fill="#000EC5" transform="translate(1243,180)"/>
<path d="M0 0 C2 2 2 2 2.25 4.5 C2 7 2 7 0 9 C-0.99 9 -1.98 9 -3 9 C-3.19 5.62 -3.19 5.62 -3 2 C-2.01 1.34 -1.02 0.68 0 0 Z " fill="#0312C5" transform="translate(1089,264)"/>
<path d="M0 0 C1.98 0 3.96 0 6 0 C6 1.32 6 2.64 6 4 C5.34 4.66 4.68 5.32 4 6 C1.38 5.62 1.38 5.62 -1 5 C-1 4.34 -1 3.68 -1 3 C-0.34 2.67 0.32 2.34 1 2 C0.67 1.34 0.34 0.68 0 0 Z " fill="#000EC5" transform="translate(1099,173)"/>
<path d="M0 0 C0 0.33 0 0.66 0 1 C-0.59 1.03 -1.18 1.05 -1.79 1.08 C-7.07 1.46 -10.11 2.11 -14 6 C-14.33 5.01 -14.66 4.02 -15 3 C-11.32 -2.78 -5.91 -0.94 0 0 Z " fill="#CBCDF3" transform="translate(768,121)"/>
</svg>
